<svg xmlns="http://www.w3.org/2000/svg" version="1.1" xmlns:xlink="http://www.w3.org/1999/xlink" xmlns:svgjs="http://svgjs.com/svgjs" width="1440" height="560" preserveAspectRatio="none" viewBox="0 0 1440 560">
    <g mask="url(&quot;#SvgjsMask1024&quot;)" fill="none">
        <rect width="1440" height="560" x="0" y="0" fill="rgba(255, 220, 186, 0.4)"></rect>
        <path d="M28 245L27 404" stroke-width="6" stroke="url(#SvgjsLinearGradient1025)" stroke-linecap="round" class="Up"></path>
        <path d="M1112 371L1111 581" stroke-width="6" stroke="url(#SvgjsLinearGradient1025)" stroke-linecap="round" class="Up"></path>
        <path d="M630 19L629 256" stroke-width="6" stroke="url(#SvgjsLinearGradient1025)" stroke-linecap="round" class="Up"></path>
        <path d="M170 456L169 819" stroke-width="10" stroke="url(#SvgjsLinearGradient1026)" stroke-linecap="round" class="Down"></path>
        <path d="M1290 293L1289 -108" stroke-width="6" stroke="url(#SvgjsLinearGradient1025)" stroke-linecap="round" class="Up"></path>
        <path d="M875 439L874 785" stroke-width="10" stroke="url(#SvgjsLinearGradient1026)" stroke-linecap="round" class="Down"></path>
        <path d="M1167 537L1166 787" stroke-width="6" stroke="url(#SvgjsLinearGradient1025)" stroke-linecap="round" class="Up"></path>
        <path d="M1438 391L1437 118" stroke-width="6" stroke="url(#SvgjsLinearGradient1026)" stroke-linecap="round" class="Down"></path>
        <path d="M1317 199L1316 588" stroke-width="8" stroke="url(#SvgjsLinearGradient1026)" stroke-linecap="round" class="Down"></path>
        <path d="M647 491L646 193" stroke-width="6" stroke="url(#SvgjsLinearGradient1026)" stroke-linecap="round" class="Down"></path>
        <path d="M1209 266L1208 439" stroke-width="8" stroke="url(#SvgjsLinearGradient1025)" stroke-linecap="round" class="Up"></path>
        <path d="M289 295L288 66" stroke-width="10" stroke="url(#SvgjsLinearGradient1025)" stroke-linecap="round" class="Up"></path>
        <path d="M424 232L423 62" stroke-width="8" stroke="url(#SvgjsLinearGradient1025)" stroke-linecap="round" class="Up"></path>
        <path d="M1031 339L1030 547" stroke-width="6" stroke="url(#SvgjsLinearGradient1026)" stroke-linecap="round" class="Down"></path>
        <path d="M621 34L620 360" stroke-width="6" stroke="url(#SvgjsLinearGradient1026)" stroke-linecap="round" class="Down"></path>
        <path d="M1233 243L1232 521" stroke-width="8" stroke="url(#SvgjsLinearGradient1026)" stroke-linecap="round" class="Down"></path>
        <path d="M243 400L242 618" stroke-width="6" stroke="url(#SvgjsLinearGradient1025)" stroke-linecap="round" class="Up"></path>
        <path d="M600 316L599 665" stroke-width="10" stroke="url(#SvgjsLinearGradient1025)" stroke-linecap="round" class="Up"></path>
        <path d="M304 488L303 137" stroke-width="10" stroke="url(#SvgjsLinearGradient1025)" stroke-linecap="round" class="Up"></path>
        <path d="M993 321L992 33" stroke-width="6" stroke="url(#SvgjsLinearGradient1026)" stroke-linecap="round" class="Down"></path>
        <path d="M83 166L82 -245" stroke-width="6" stroke="url(#SvgjsLinearGradient1025)" stroke-linecap="round" class="Up"></path>
        <path d="M341 396L340 139" stroke-width="6" stroke="url(#SvgjsLinearGradient1026)" stroke-linecap="round" class="Down"></path>
        <path d="M76 403L75 126" stroke-width="8" stroke="url(#SvgjsLinearGradient1026)" stroke-linecap="round" class="Down"></path>
        <path d="M787 231L786 636" stroke-width="10" stroke="url(#SvgjsLinearGradient1025)" stroke-linecap="round" class="Up"></path>
        <path d="M210 539L209 148" stroke-width="6" stroke="url(#SvgjsLinearGradient1025)" stroke-linecap="round" class="Up"></path>
        <path d="M752 523L751 765" stroke-width="8" stroke="url(#SvgjsLinearGradient1025)" stroke-linecap="round" class="Up"></path>
        <path d="M497 269L496 431" stroke-width="6" stroke="url(#SvgjsLinearGradient1026)" stroke-linecap="round" class="Down"></path>
        <path d="M414 533L413 853" stroke-width="8" stroke="url(#SvgjsLinearGradient1026)" stroke-linecap="round" class="Down"></path>
        <path d="M1189 94L1188 -226" stroke-width="10" stroke="url(#SvgjsLinearGradient1026)" stroke-linecap="round" class="Down"></path>
        <path d="M763 303L762 587" stroke-width="8" stroke="url(#SvgjsLinearGradient1026)" stroke-linecap="round" class="Down"></path>
        <path d="M692 62L691 375" stroke-width="8" stroke="url(#SvgjsLinearGradient1025)" stroke-linecap="round" class="Up"></path>
        <path d="M1250 516L1249 366" stroke-width="10" stroke="url(#SvgjsLinearGradient1026)" stroke-linecap="round" class="Down"></path>
        <path d="M1323 447L1322 816" stroke-width="10" stroke="url(#SvgjsLinearGradient1026)" stroke-linecap="round" class="Down"></path>
        <path d="M1420 10L1419 280" stroke-width="8" stroke="url(#SvgjsLinearGradient1025)" stroke-linecap="round" class="Up"></path>
        <path d="M711 493L710 657" stroke-width="10" stroke="url(#SvgjsLinearGradient1026)" stroke-linecap="round" class="Down"></path>
        <path d="M403 173L402 -143" stroke-width="10" stroke="url(#SvgjsLinearGradient1025)" stroke-linecap="round" class="Up"></path>
    </g>
    <defs>
        <mask id="SvgjsMask1024">
            <rect width="1440" height="560" fill="#ffffff"></rect>
        </mask>
        <linearGradient x1="0%" y1="100%" x2="0%" y2="0%" id="SvgjsLinearGradient1025">
            <stop stop-color="rgba(255, 255, 255, 0)" offset="0"></stop>
            <stop stop-color="rgba(255, 255, 255, 1)" offset="1"></stop>
        </linearGradient>
        <linearGradient x1="0%" y1="0%" x2="0%" y2="100%" id="SvgjsLinearGradient1026">
            <stop stop-color="rgba(255, 255, 255, 0)" offset="0"></stop>
            <stop stop-color="rgba(255, 255, 255, 1)" offset="1"></stop>
        </linearGradient>
    </defs>
</svg>